<?xml version="1.0" encoding="UTF-8"?><svg width="40" height="24" viewBox="0 0 40 24" fill="none" xmlns="http://www.w3.org/2000/svg"><rect width="40" height="24" rx="4" fill="black"/><path d="M11.1 15.2c-.3.4-.8.7-1.3.7-.6 0-1-.3-1.6-.3-.6 0-1.1.3-1.7.3-.6 0-1.2-.4-1.5-.9-1-1.5-.8-4.4.8-5.7.5-.4 1.2-.7 1.9-.7.6 0 1.1.3 1.6.3.5 0 .9-.3 1.7-.3.6 0 1.2.2 1.7.6-.1.1-1 .6-1 1.7 0 1.3 1.1 1.8 1.1 1.8-.1.3-.2.6-.4.9-.3.5-.6 1-1.3 1.6zm-2.4-8.4c.3-.4.5-.9.5-1.4 0-.1 0-.2-.1-.2-.5 0-1.1.3-1.4.7-.3.3-.5.8-.6 1.3v.2c.1 0 .1.1.2.1.5-.1 1-.3 1.4-.7zm8.5 8.4h-1.2l-.7-2.1h-2.3l-.7 2.1h-1.2l2.3-7.2h1.4l2.4 7.2zm-2.1-3l-.8-2.6c-.1-.2-.1-.5-.2-.8h-.1c0 .3-.1.5-.2.8l-.8 2.6h2.1zm7.3 3h-1.1v-5.5h-1.8v-.9h4.7v.9h-1.8v5.5zm6.7 0h-1.1v-3.3h-3.1v3.3h-1.1v-7.2h1.1v3h3.1v-3h1.1v7.2z" fill="white"/></svg>
