<?xml version="1.0" encoding="UTF-8"?>
<svg width="40" height="24" viewBox="0 0 40 24" fill="none" xmlns="http://www.w3.org/2000/svg">
  <rect width="40" height="24" rx="4" fill="white"/>
  <path d="M18.5 14.5v-5h-2.8v.7h2.1v3.6h-2.1v.7h2.8zm3.5-4.3v4.3h-.7v-4.3h-1.4v-.7h3.5v.7h-1.4zm4.9 4.3h-.7v-1.8h-2.1v1.8h-.7v-5h.7v2.5h2.1v-2.5h.7v5zm2.8 0h-.7v-4.3h-1.4v-.7h3.5v.7h-1.4v4.3z" fill="#3C4043"/>
  <path d="M13.4 11.8c0-.2 0-.4-.1-.6h-4v1.2h2.3c-.1.5-.4 1-.9 1.2v1h1.4c.8-.8 1.3-1.9 1.3-2.8z" fill="#4285F4"/>
  <path d="M9.3 14.5c1.2 0 2.2-.4 2.9-1.1l-1.4-1c-.4.3-.9.4-1.5.4-1.1 0-2.1-.8-2.4-1.8h-1.5v1c.7 1.4 2.2 2.5 3.9 2.5z" fill="#34A853"/>
  <path d="M6.9 11c-.1-.3-.1-.6-.1-.9s0-.6.1-.9V8.2H5.4c-.3.6-.4 1.2-.4 1.9s.1 1.3.4 1.9l1.5-1z" fill="#FBBC04"/>
  <path d="M9.3 8.3c.6 0 1.2.2 1.6.6l1.3-1.3c-.8-.7-1.8-1.1-2.9-1.1-1.7 0-3.2 1.1-3.9 2.5l1.5 1c.3-1 1.3-1.7 2.4-1.7z" fill="#EA4335"/>
</svg> 