<?xml version="1.0" encoding="UTF-8"?>
<svg width="40" height="24" viewBox="0 0 40 24" fill="none" xmlns="http://www.w3.org/2000/svg">
  <rect width="40" height="24" rx="4" fill="white"/>
  <path d="M29.046 7.275c.313.358.537.806.654 1.32.117.513.117 1.072 0 1.585-.234 1.027-.82 1.88-1.63 2.376-.81.496-1.805.716-2.796.613h-2.212c-.156 0-.293.102-.34.248l-.877 3.877c-.029.124-.138.211-.266.211h-2.432c-.137 0-.234-.132-.195-.264l1.559-6.894c.02-.083.093-.141.178-.141h3.75c.644.05 1.278-.14 1.767-.53.488-.388.8-.94.869-1.54.039-.337-.019-.678-.166-.982-.146-.304-.386-.553-.684-.71-.532-.28-1.132-.41-1.734-.377h-4.407c-.156 0-.293.102-.34.248l-2.11 9.338c-.028.124-.138.211-.266.211h-2.432c-.137 0-.234-.132-.195-.264l2.11-9.338c.02-.083.093-.141.178-.141h6.845c1.454-.029 2.871.445 3.946 1.32z" fill="#003087"/>
  <path d="M15.954 7.275c.313.358.537.806.654 1.32.117.513.117 1.072 0 1.585-.234 1.027-.82 1.88-1.63 2.376-.81.496-1.805.716-2.796.613H9.97c-.156 0-.293.102-.34.248l-.877 3.877c-.029.124-.138.211-.266.211H6.055c-.137 0-.234-.132-.195-.264l1.559-6.894c.02-.083.093-.141.178-.141h3.75c.644.05 1.278-.14 1.767-.53.488-.388.8-.94.869-1.54.039-.337-.019-.678-.166-.982-.146-.304-.386-.553-.684-.71-.532-.28-1.132-.41-1.734-.377H6.992c-.156 0-.293.102-.34.248l-2.11 9.338c-.028.124-.138.211-.266.211H1.844c-.137 0-.234-.132-.195-.264l2.11-9.338c.02-.083.093-.141.178-.141h6.845c1.454-.029 2.871.445 3.946 1.32z" fill="#009CDE"/>
</svg> 