<?xml version="1.0" encoding="UTF-8"?>
<svg width="24" height="18" viewBox="0 0 24 18" fill="none" xmlns="http://www.w3.org/2000/svg">
  <rect width="24" height="18" fill="white"/>
  <rect width="24" height="1.38462" fill="#B22234"/>
  <rect y="2.76923" width="24" height="1.38462" fill="#B22234"/>
  <rect y="5.53846" width="24" height="1.38462" fill="#B22234"/>
  <rect y="8.30769" width="24" height="1.38462" fill="#B22234"/>
  <rect y="11.0769" width="24" height="1.38462" fill="#B22234"/>
  <rect y="13.8462" width="24" height="1.38462" fill="#B22234"/>
  <rect y="16.6154" width="24" height="1.38462" fill="#B22234"/>
  <rect width="12" height="9.69231" fill="#3C3B6E"/>
  <circle cx="2" cy="1.84615" r="0.615385" fill="white"/>
  <circle cx="4" cy="1.84615" r="0.615385" fill="white"/>
  <circle cx="6" cy="1.84615" r="0.615385" fill="white"/>
  <circle cx="8" cy="1.84615" r="0.615385" fill="white"/>
  <circle cx="10" cy="1.84615" r="0.615385" fill="white"/>
  <circle cx="3" cy="3.23077" r="0.615385" fill="white"/>
  <circle cx="5" cy="3.23077" r="0.615385" fill="white"/>
  <circle cx="7" cy="3.23077" r="0.615385" fill="white"/>
  <circle cx="9" cy="3.23077" r="0.615385" fill="white"/>
  <circle cx="11" cy="3.23077" r="0.615385" fill="white"/>
  <circle cx="2" cy="4.61538" r="0.615385" fill="white"/>
  <circle cx="4" cy="4.61538" r="0.615385" fill="white"/>
  <circle cx="6" cy="4.61538" r="0.615385" fill="white"/>
  <circle cx="8" cy="4.61538" r="0.615385" fill="white"/>
  <circle cx="10" cy="4.61538" r="0.615385" fill="white"/>
  <circle cx="3" cy="6" r="0.615385" fill="white"/>
  <circle cx="5" cy="6" r="0.615385" fill="white"/>
  <circle cx="7" cy="6" r="0.615385" fill="white"/>
  <circle cx="9" cy="6" r="0.615385" fill="white"/>
  <circle cx="11" cy="6" r="0.615385" fill="white"/>
  <circle cx="2" cy="7.38462" r="0.615385" fill="white"/>
  <circle cx="4" cy="7.38462" r="0.615385" fill="white"/>
  <circle cx="6" cy="7.38462" r="0.615385" fill="white"/>
  <circle cx="8" cy="7.38462" r="0.615385" fill="white"/>
  <circle cx="10" cy="7.38462" r="0.615385" fill="white"/>
</svg> 